<svg width="44" height="44" viewBox="0 0 44 44" fill="none" xmlns="http://www.w3.org/2000/svg">
<path fill-rule="evenodd" clip-rule="evenodd" d="M12.0604 39.98C7.49012 41.5035 3.30857 36.8316 5.32742 32.4574L17.0063 7.15328C18.9726 2.89316 25.0276 2.89316 26.9938 7.15328L38.6725 32.4574C40.6914 36.8316 36.5099 41.5035 31.9396 39.98L23.7393 37.2466C22.6103 36.8703 21.3899 36.8703 20.2609 37.2466L12.0604 39.98Z" fill="white"/>
<path d="M23.8333 37.2773L23.7393 37.246C22.6103 36.8696 21.3899 36.8696 20.2609 37.246L20.1667 37.2773L20.1667 18.3329C20.1667 17.3203 20.9874 16.4995 22 16.4995C23.0125 16.4995 23.8333 17.3203 23.8333 18.3329L23.8333 37.2773Z" fill="#98AAE9"/>
</svg>
