<svg width="48" height="134" viewBox="0 0 48 134" fill="none" xmlns="http://www.w3.org/2000/svg">
<circle cx="45.9993" cy="132" r="1.66667" transform="rotate(180 45.9993 132)" fill="#13C296"/>
<circle cx="45.9993" cy="117.333" r="1.66667" transform="rotate(180 45.9993 117.333)" fill="#13C296"/>
<circle cx="45.9993" cy="102.667" r="1.66667" transform="rotate(180 45.9993 102.667)" fill="#13C296"/>
<circle cx="45.9993" cy="88.0003" r="1.66667" transform="rotate(180 45.9993 88.0003)" fill="#13C296"/>
<circle cx="45.9993" cy="73.3333" r="1.66667" transform="rotate(180 45.9993 73.3333)" fill="#13C296"/>
<circle cx="45.9993" cy="45.0003" r="1.66667" transform="rotate(180 45.9993 45.0003)" fill="#13C296"/>
<circle cx="45.9993" cy="16.0003" r="1.66667" transform="rotate(180 45.9993 16.0003)" fill="#13C296"/>
<circle cx="45.9993" cy="59.0003" r="1.66667" transform="rotate(180 45.9993 59.0003)" fill="#13C296"/>
<circle cx="45.9993" cy="30.6673" r="1.66667" transform="rotate(180 45.9993 30.6673)" fill="#13C296"/>
<circle cx="45.9993" cy="1.66732" r="1.66667" transform="rotate(180 45.9993 1.66732)" fill="#13C296"/>
<circle cx="31.3326" cy="132" r="1.66667" transform="rotate(180 31.3326 132)" fill="#13C296"/>
<circle cx="31.3326" cy="117.333" r="1.66667" transform="rotate(180 31.3326 117.333)" fill="#13C296"/>
<circle cx="31.3326" cy="102.667" r="1.66667" transform="rotate(180 31.3326 102.667)" fill="#13C296"/>
<circle cx="31.3326" cy="88.0003" r="1.66667" transform="rotate(180 31.3326 88.0003)" fill="#13C296"/>
<circle cx="31.3328" cy="73.3333" r="1.66667" transform="rotate(180 31.3328 73.3333)" fill="#13C296"/>
<circle cx="31.3328" cy="45.0003" r="1.66667" transform="rotate(180 31.3328 45.0003)" fill="#13C296"/>
<circle cx="31.3328" cy="16.0003" r="1.66667" transform="rotate(180 31.3328 16.0003)" fill="#13C296"/>
<circle cx="31.3328" cy="59.0003" r="1.66667" transform="rotate(180 31.3328 59.0003)" fill="#13C296"/>
<circle cx="31.3328" cy="30.6673" r="1.66667" transform="rotate(180 31.3328 30.6673)" fill="#13C296"/>
<circle cx="31.3328" cy="1.66732" r="1.66667" transform="rotate(180 31.3328 1.66732)" fill="#13C296"/>
<circle cx="16.6661" cy="132" r="1.66667" transform="rotate(180 16.6661 132)" fill="#13C296"/>
<circle cx="16.6661" cy="117.333" r="1.66667" transform="rotate(180 16.6661 117.333)" fill="#13C296"/>
<circle cx="16.6661" cy="102.667" r="1.66667" transform="rotate(180 16.6661 102.667)" fill="#13C296"/>
<circle cx="16.6661" cy="88.0003" r="1.66667" transform="rotate(180 16.6661 88.0003)" fill="#13C296"/>
<circle cx="16.6659" cy="73.3333" r="1.66667" transform="rotate(180 16.6659 73.3333)" fill="#13C296"/>
<circle cx="16.6659" cy="45.0003" r="1.66667" transform="rotate(180 16.6659 45.0003)" fill="#13C296"/>
<circle cx="16.6659" cy="16.0003" r="1.66667" transform="rotate(180 16.6659 16.0003)" fill="#13C296"/>
<circle cx="16.6659" cy="59.0003" r="1.66667" transform="rotate(180 16.6659 59.0003)" fill="#13C296"/>
<circle cx="16.6659" cy="30.6673" r="1.66667" transform="rotate(180 16.6659 30.6673)" fill="#13C296"/>
<circle cx="16.6659" cy="1.66732" r="1.66667" transform="rotate(180 16.6659 1.66732)" fill="#13C296"/>
<circle cx="1.99935" cy="132" r="1.66667" transform="rotate(180 1.99935 132)" fill="#13C296"/>
<circle cx="1.99935" cy="117.333" r="1.66667" transform="rotate(180 1.99935 117.333)" fill="#13C296"/>
<circle cx="1.99935" cy="102.667" r="1.66667" transform="rotate(180 1.99935 102.667)" fill="#13C296"/>
<circle cx="1.99935" cy="88.0003" r="1.66667" transform="rotate(180 1.99935 88.0003)" fill="#13C296"/>
<circle cx="1.99935" cy="73.3333" r="1.66667" transform="rotate(180 1.99935 73.3333)" fill="#13C296"/>
<circle cx="1.99935" cy="45.0003" r="1.66667" transform="rotate(180 1.99935 45.0003)" fill="#13C296"/>
<circle cx="1.99935" cy="16.0003" r="1.66667" transform="rotate(180 1.99935 16.0003)" fill="#13C296"/>
<circle cx="1.99935" cy="59.0003" r="1.66667" transform="rotate(180 1.99935 59.0003)" fill="#13C296"/>
<circle cx="1.99935" cy="30.6673" r="1.66667" transform="rotate(180 1.99935 30.6673)" fill="#13C296"/>
<circle cx="1.99935" cy="1.66732" r="1.66667" transform="rotate(180 1.99935 1.66732)" fill="#13C296"/>
</svg>
